
<svg version="1.1" width="123px" height="52px" viewBox="0 0 123.0 52.0"
    xmlns="http://www.w3.org/2000/svg" xlink="http://www.w3.org/1999/xlink">
    <defs>
        <clipPath id="i0">
            <path d="M1440,0 L1440,1080 L0,1080 L0,0 L1440,0 Z"></path>
        </clipPath>
        <clipPath id="i1">
            <path
                d="M9.42938313,0 L9.69838504,0.00653564186 C12.3754535,0.136120665 14.6494954,2.15872942 15.2149714,3.02926484 L15.2906887,3.15423469 C15.9055243,4.23566616 16.7173023,7.22153453 16.1848195,8.10092199 C16.1275427,8.24111558 14.2717242,12.6279835 5.91409592,13.3318407 C5.92433873,13.3227691 5.94100242,13.3077256 5.96546289,13.2840652 L6.024168,13.2253686 C6.47668655,12.7589787 8.07069333,10.806148 5.91409592,8.27610971 L5.7435724,8.08253411 C3.68078826,5.81722799 1.04618685,5.6083769 0.243075099,5.60041132 L0.126593468,5.60062561 C0.0443441231,5.60182393 0,5.6049088 0,5.6049088 C0.235400239,5.39512727 5.97419794,0.304563034 8.91919693,0.024163824 C9.09054041,0.00823766726 9.26078554,0 9.42938313,0 Z"></path>
        </clipPath>
        <linearGradient id="i2" x1="13.1290101px" y1="0.38812389px" x2="2.87621682px"
            y2="15.1604517px" gradientUnits="userSpaceOnUse">
            <stop stopColor="#FF4D4D" offset="0%"></stop>
            <stop stopColor="#FF80C6" offset="100%"></stop>
        </linearGradient>
        <clipPath id="i3">
            <path
                d="M27.9375421,0 L28.1397029,0.00537725974 C31.3691971,0.177037225 34.3549202,4.43884739 37.1077133,9.94066767 L37.2621906,10.2552597 C39.8604337,15.6507177 38.3675272,18.0613601 38.3675272,18.0613601 L38.3494908,17.8302505 C38.1589112,15.8456814 37.0745388,14.3419211 34.8698136,13.54602 L34.7095923,13.4924273 C32.3543685,12.763853 27.4871289,13.7384694 21.7686276,16.5351949 L21.4802693,16.6777501 C15.7010801,19.564453 9.24023408,24.5476993 9.24023408,24.5476993 L9.0158242,24.6443565 C6.74359458,25.5315453 3.65242065,24.0679836 1.99053772,23.0215341 L1.92812437,22.9820437 C1.88629806,22.9554258 1.84405946,22.9282117 1.80154383,22.9003169 L1.67330103,22.8145058 C-0.00114368757,21.6702169 -1.89126945,19.3619984 4.02524153,10.8748191 C10.3221144,1.84413911 24.6303932,0 27.9375421,0 Z"></path>
        </clipPath>
        <linearGradient id="i4" x1="33.8933874px" y1="5.90561985px" x2="7.43721993px"
            y2="21.6775371px" gradientUnits="userSpaceOnUse">
            <stop stopColor="#7BE8FF" offset="0%"></stop>
            <stop stopColor="#0095FF" offset="100%"></stop>
        </linearGradient>
        <clipPath id="i5">
            <path
                d="M24.330774,0 L24.5716516,0.00476601992 C26.4977691,0.0810226198 28.3916364,1.07236854 29.491398,2.97928966 L38.3534804,18.3277113 C38.0458891,18.4401197 25.0188236,23.2454007 19.7379999,32.7979976 L19.5741385,33.0968132 C14.3750242,42.6504796 13.4576137,51.3662884 20.9450928,51.0537666 C20.9325901,51.0626636 20.8917802,51.0905441 20.8113492,51.1327001 L20.7173841,51.179374 C20.2860794,51.383178 19.1737447,51.7807283 16.8152756,51.9560658 C16.6928459,51.9631169 15.0903691,52.0512566 12.9216049,51.9560658 L12.6424463,51.9435056 C8.41085838,51.7399287 2.23731461,50.8400648 0.530505772,47.4264471 L0.427366882,47.2024985 C0.135624954,46.5128624 0.00197704014,45.664465 0,44.6937383 L0,44.65255 L0.0070922317,44.2723737 C0.249019916,37.3234922 6.60786726,24.7381841 10.4124114,18.1503269 L10.4241923,18.1297899 C10.6032984,17.8181792 12.5426757,14.4568624 14.5492225,10.979461 L14.9379705,10.3057538 C17.0756962,6.60105742 19.1657567,2.97928966 19.1657567,2.97928966 C20.3140875,0.992913494 22.3229799,0 24.330774,0 Z"></path>
        </clipPath>
        <linearGradient id="i6" x1="30.7833206px" y1="1.51385264px" x2="7.99052796px" y2="52px"
            gradientUnits="userSpaceOnUse">
            <stop stopColor="#FFFCA0" offset="0%"></stop>
            <stop stopColor="#D450FF" offset="100%"></stop>
        </linearGradient>
    </defs>
    <g transform="translate(-78.0 -42.0)">
        <g clipPath="url(#i0)">
            <g transform="translate(78.0 42.0)">
                <g transform="">
                    <g transform="translate(33.88866475862582 36.46430872242229)">
                        <g clipPath="url(#i1)">
                            <polygon
                                points="0,0 16.3576645,0 16.3576645,13.3318407 0,13.3318407 0,0"
                                stroke="none" fill="url(#i2)"></polygon>
                        </g>
                    </g>
                    <g transform="translate(11.704858695344168 26.506067358771535)">
                        <g clipPath="url(#i3)">
                            <polygon
                                points="-8.8817842e-16,0 38.7943605,0 38.7943605,24.918119 -8.8817842e-16,24.918119 -8.8817842e-16,0"
                                stroke="none" fill="url(#i4)"></polygon>
                        </g>
                    </g>
                    <g clipPath="url(#i5)">
                        <polygon points="0,0 38.3534804,0 38.3534804,52 0,52 0,0" stroke="none"
                            fill="url(#i6)"></polygon>
                    </g>
                </g>
                <g transform="translate(65.0 16.5)">
                    <text transform="translate(0.0 15.0)" fontFamily="Montserrat-Black, Montserrat"
                        fontSize="16.0" fontWeight="800" fill="#FFFFFF" textAnchor="left">ZoneV</text>
                </g>
            </g>
        </g>
    </g>
</svg>